<?xml version="1.0" encoding="UTF-8" standalone="no"?>
<svg
   viewBox="0 0 1000 1000"
   version="1.1"
   id="svg1"
   sodipodi:docname="cobol.svg"
   inkscape:version="1.3.2 (091e20ef0f, 2023-11-25, custom)"
   width="1000"
   height="1000"
   xmlns:inkscape="http://www.inkscape.org/namespaces/inkscape"
   xmlns:sodipodi="http://sodipodi.sourceforge.net/DTD/sodipodi-0.dtd"
   xmlns="http://www.w3.org/2000/svg"
   xmlns:svg="http://www.w3.org/2000/svg"
   xmlns:rdf="http://www.w3.org/1999/02/22-rdf-syntax-ns#"
   xmlns:cc="http://creativecommons.org/ns#"
   xmlns:dc="http://purl.org/dc/elements/1.1/">
  <defs
     id="defs1" />
  <sodipodi:namedview
     id="namedview1"
     pagecolor="#ffffff"
     bordercolor="#000000"
     borderopacity="0.25"
     inkscape:showpageshadow="2"
     inkscape:pageopacity="0.0"
     inkscape:pagecheckerboard="0"
     inkscape:deskcolor="#d1d1d1"
     inkscape:zoom="0.52135315"
     inkscape:cx="-96.863327"
     inkscape:cy="459.38152"
     inkscape:window-width="2560"
     inkscape:window-height="1009"
     inkscape:window-x="0"
     inkscape:window-y="0"
     inkscape:window-maximized="1"
     inkscape:current-layer="svg1" />
  <title
     id="title1">file_type_cobol</title>
  <path
     d="m 718.2005,168.60233 a 155.94566,155.94566 0 0 0 61.8665,-88.40075 162.50035,162.50035 0 0 1 -0.63093,75.60683 c -7.81656,20.40017 -19.8744,38.80239 -29.23324,58.50153 A 763.14877,763.14877 0 0 1 910.00419,111.32762 c -16.89499,52.15714 -63.82941,83.7038 -98.32042,123.73301 6.65985,14.33621 9.81451,34.66628 28.04147,38.8725 a 176.52109,176.52109 0 0 0 87.62962,5.43303 c 31.96728,-10.97122 47.14473,-44.09522 63.09332,-71.3305 v 51.49116 A 551.64594,551.64594 0 0 1 970.048,320.79744 c 7.01037,19.17336 14.33621,38.27662 20.40018,57.73039 v 33.36936 c -7.5011,12.89908 -15.49292,25.44764 -23.23938,38.17146 a 185.52942,185.52942 0 0 0 -37.43537,-40.73024 141.25894,141.25894 0 0 0 -64.88096,-4.38149 112.58653,112.58653 0 0 0 84.5801,51.52622 c -12.58361,12.96918 -23.23937,31.96728 -43.11377,33.96523 -57.52008,8.65781 -112.41127,-17.70118 -169.61588,-17.52592 -9.88462,0.70104 -24.78165,0.84125 -27.5157,13.03929 0,25.7631 7.60626,50.93033 6.65986,76.69344 -2.06806,44.09522 -17.94655,86.43785 -18.54243,130.60317 a 483.18968,483.18968 0 0 0 29.37345,120.85876 c -18.33212,-2.69899 -36.59413,-5.8186 -54.75099,-9.11348 -3.50518,7.29079 -6.44954,14.72178 -9.11348,22.22287 a 158.22403,158.22403 0 0 0 39.92406,41.88696 c -2.13817,4.45158 -6.37944,13.35475 -8.4475,17.80633 l -20.08471,4.83716 c -4.59179,8.6578 -9.21863,17.24551 -14.02073,25.90331 a 154.96421,154.96421 0 0 0 -77.11406,2.13816 c -16.33416,-6.51964 -32.52812,-13.17949 -48.68702,-19.87439 a 208.17291,208.17291 0 0 0 14.2661,-81.14502 C 538.80515,784.3581 492.60682,784.28799 478.58608,752.98669 A 218.47815,218.47815 0 0 1 442.7631,653.05388 c -28.84767,-15.17745 -51.00044,-42.7983 -84.12443,-49.07258 -1.68249,14.33621 -2.9093,28.74251 -5.36293,43.00861 a 210.83685,210.83685 0 0 1 -47.24989,84.33474 c 1.36702,14.79188 2.7691,29.51366 4.20622,44.34059 12.12794,11.3568 24.22083,22.71359 36.20856,34.14049 a 341.82559,341.82559 0 0 1 -49.98393,24.99197 389.56621,389.56621 0 0 1 -59.13247,2.69899 c -9.04337,-8.90317 -18.15685,-17.80633 -27.23528,-26.77961 a 170.73754,170.73754 0 0 0 3.99591,-91.41521 c 5.99387,-14.02074 11.4269,-28.4621 16.64963,-42.7983 A 195.06352,195.06352 0 0 1 125.22843,683.72425 179.46545,179.46545 0 0 1 9.9078629,531.94976 135.26507,135.26507 0 0 1 59.225809,417.40033 a 224.68233,224.68233 0 0 0 -8.412443,91.66057 106.48751,106.48751 0 0 0 87.629614,86.43785 121.34949,121.34949 0 0 0 68.70162,-22.53833 262.1878,262.1878 0 0 1 12.72382,-144.86928 193.62639,193.62639 0 0 1 125.69591,-93.23791 148.44456,148.44456 0 0 0 70.48926,-54.89119 374.00319,374.00319 0 0 1 53.59427,-46.61895 c -7.99182,-7.67635 -15.87848,-15.42281 -23.83525,-23.09916 a 75.501674,75.501674 0 0 0 50.15919,-59.97371 c 45.00657,-10.51556 89.41726,-23.16927 133.89805,-35.43742 a 132.95165,132.95165 0 0 0 49.59836,21.24142 c 11.11143,12.12794 17.31561,40.55499 38.55703,32.52811 M 585.63442,636.96509 c 1.47218,26.91981 -1.68249,58.36132 23.62494,75.53672 0,-26.46414 -1.61238,-52.82313 -3.50518,-79.21717 z"
     style="fill:#000000;fill-opacity:1;stroke-width:35.0518"
     id="path1" />
  <metadata
     id="metadata1">
    <rdf:RDF>
      <cc:Work
         rdf:about="">
        <dc:title>file_type_cobol</dc:title>
      </cc:Work>
    </rdf:RDF>
  </metadata>
</svg>
