<?xml version="1.0" encoding="UTF-8" standalone="no"?>
<svg
   width="1000"
   height="1000"
   stroke="#00979c"
   version="1.1"
   id="svg4"
   sodipodi:docname="arduino.svg"
   inkscape:version="1.3 (0e150ed6c4, 2023-07-21)"
   xmlns:inkscape="http://www.inkscape.org/namespaces/inkscape"
   xmlns:sodipodi="http://sodipodi.sourceforge.net/DTD/sodipodi-0.dtd"
   xmlns="http://www.w3.org/2000/svg"
   xmlns:svg="http://www.w3.org/2000/svg"
   xmlns:rdf="http://www.w3.org/1999/02/22-rdf-syntax-ns#"
   xmlns:cc="http://creativecommons.org/ns#"
   xmlns:dc="http://purl.org/dc/elements/1.1/">
  <defs
     id="defs4" />
  <sodipodi:namedview
     id="namedview4"
     pagecolor="#ffffff"
     bordercolor="#000000"
     borderopacity="0.25"
     inkscape:showpageshadow="2"
     inkscape:pageopacity="0.0"
     inkscape:pagecheckerboard="0"
     inkscape:deskcolor="#d1d1d1"
     inkscape:zoom="0.23177389"
     inkscape:cx="875.85362"
     inkscape:cy="698.95708"
     inkscape:window-width="1795"
     inkscape:window-height="807"
     inkscape:window-x="546"
     inkscape:window-y="32"
     inkscape:window-maximized="1"
     inkscape:current-layer="svg4" />
  <g
     fill="none"
     id="g3"
     style="fill:none;fill-opacity:1;fill-rule:nonzero"
     transform="matrix(1.3630941,0,0,1.3630941,10.60915,267.64224)">
    <path
       d="M 174,30 C 78.9,22.43 -1,135 38,222 c 38,94.4 181,120 249,44.4 65.9,-64.6 91.3,-164 172,-215 82,-56 214,-3.12 230,96.4 15.6,95.3 -87.1,188 -180,160 -68.7,-15.5 -118,-74.2 -146,-136 -34.5,-59 -79.6,-122 -150,-138 -12.5,-2.84 -25.4,-3.96 -38.2,-3.94 z"
       stroke-width="59"
       id="path1"
       style="fill:none;fill-opacity:1;fill-rule:nonzero" />
    <path
       d="M 118,165 H 238"
       stroke-width="25"
       id="path2"
       style="fill:none;fill-opacity:1;fill-rule:nonzero" />
    <path
       d="M 486,165 H 586 M 535,115 V 215"
       stroke-width="32"
       id="path3"
       style="fill:none;fill-opacity:1;fill-rule:nonzero" />
  </g>
  <title
     id="title4">wiki:Behnam N</title>
  <metadata
     id="metadata4">
    <rdf:RDF>
      <cc:Work
         rdf:about="">
        <dc:title>wiki:Behnam N</dc:title>
      </cc:Work>
    </rdf:RDF>
  </metadata>
</svg>
