<?xml version="1.0" encoding="UTF-8" standalone="no"?>
<!-- Created with Inkscape (http://www.inkscape.org/) -->

<svg
   width="1000"
   height="1000"
   viewBox="0 0 264.58333 264.58333"
   version="1.1"
   id="svg5"
   sodipodi:docname="The-AWK-Programming-Language.svg"
   inkscape:version="1.3 (0e150ed6c4, 2023-07-21)"
   xmlns:inkscape="http://www.inkscape.org/namespaces/inkscape"
   xmlns:sodipodi="http://sodipodi.sourceforge.net/DTD/sodipodi-0.dtd"
   xmlns="http://www.w3.org/2000/svg"
   xmlns:svg="http://www.w3.org/2000/svg">
  <sodipodi:namedview
     id="namedview7"
     pagecolor="#ffffff"
     bordercolor="#666666"
     borderopacity="1.0"
     inkscape:pageshadow="2"
     inkscape:pageopacity="0.0"
     inkscape:pagecheckerboard="0"
     inkscape:document-units="px"
     showgrid="false"
     inkscape:zoom="0.3826573"
     inkscape:cx="574.92697"
     inkscape:cy="489.99458"
     inkscape:window-width="1999"
     inkscape:window-height="762"
     inkscape:window-x="405"
     inkscape:window-y="139"
     inkscape:window-maximized="1"
     inkscape:current-layer="svg5"
     inkscape:showpageshadow="2"
     inkscape:deskcolor="#d1d1d1" />
  <defs
     id="defs2">
    <rect
       x="42.605576"
       y="577.02264"
       width="666.91473"
       height="395.50803"
       id="rect1652" />
    <rect
       x="42.605576"
       y="577.02264"
       width="666.91473"
       height="395.50803"
       id="rect1652-0" />
    <rect
       x="42.605576"
       y="577.02264"
       width="666.91473"
       height="395.50803"
       id="rect1652-1" />
    <rect
       x="42.605576"
       y="577.02264"
       width="666.91473"
       height="395.50803"
       id="rect1652-1-1" />
  </defs>
  <path
     id="path9243"
     style="fill:#000000;fill-opacity:1;font-size:40px;line-height:1.25;font-family:'FONTSPRING DEMO - Cheltenham Pro';-inkscape-font-specification:'FONTSPRING DEMO - Cheltenham Pro';letter-spacing:-5.18486px;white-space:pre;shape-inside:url(#rect1652-0);display:inline"
     d="M 55.685497 585.55796 C 55.605497 585.55796 55.605544 585.55786 55.285545 585.75786 L 53.245406 586.99794 C 52.885406 587.23794 52.685472 587.47793 52.685472 587.67793 C 52.685472 587.75793 52.725463 587.87797 52.765463 588.03797 L 53.68543 590.35784 L 46.085417 608.95785 C 45.285418 610.67785 44.765448 611.27793 43.885449 611.47793 C 43.20545 611.67793 43.005401 611.87791 43.005401 612.31791 L 43.005401 613.07789 L 49.765438 613.07789 L 49.765438 612.31791 C 49.765438 611.91791 49.605513 611.75784 49.125513 611.59784 C 48.125514 611.27784 47.805442 610.99784 47.805442 610.31784 C 47.805442 609.95784 47.925537 609.47789 48.285537 608.55789 L 49.405404 605.63786 L 59.925452 605.63786 L 61.285443 608.95785 C 61.565443 609.63785 61.725467 610.23788 61.725467 610.59788 C 61.725467 611.07788 61.445456 611.31784 60.525457 611.59784 C 59.925457 611.75784 59.7254 611.91791 59.7254 612.31791 L 59.7254 613.07789 L 68.245532 613.07789 L 68.245532 612.31791 C 68.245532 611.95791 68.125507 611.79783 67.805508 611.67783 C 66.645509 611.31783 66.525511 611.19782 65.845511 609.79782 L 55.885398 585.83785 C 55.805398 585.59785 55.765497 585.55796 55.685497 585.55796 z M 63.740561 586.39793 L 63.740561 587.23791 C 63.740561 587.51791 63.860514 587.67784 64.140514 587.79784 C 65.180513 588.11784 65.420619 588.35785 65.820619 589.67785 L 73.620532 613.47784 L 75.140504 613.47784 L 80.980574 595.87795 L 86.820643 613.47784 L 88.380534 613.47784 L 95.860637 590.43783 C 96.376821 589.08592 96.592247 588.53714 96.977621 588.21085 C 97.28706 588.45124 97.355717 588.81544 97.355717 589.55794 L 97.355717 609.91789 C 97.355717 611.11788 97.195635 611.31784 96.115636 611.59784 L 95.915583 611.63791 C 95.435584 611.75791 95.235588 611.9979 95.235588 612.3979 L 95.235588 613.07789 L 103.27562 613.07789 L 103.27562 612.3979 C 103.27562 611.9579 103.1557 611.79791 102.6357 611.63791 L 102.47572 611.59784 C 101.43572 611.31784 101.27571 611.11788 101.27571 609.91789 L 101.27571 599.19794 L 111.03562 609.8379 C 111.31562 610.1979 111.47564 610.47794 111.47564 610.71794 C 111.47564 611.19794 111.11572 611.43791 110.15572 611.63791 C 109.67572 611.71791 109.51565 611.9179 109.51565 612.3979 L 109.51565 613.07789 L 119.11573 613.07789 L 119.11573 612.3979 C 119.11573 611.8379 119.03566 611.71792 118.39566 611.55792 C 117.51566 611.31792 117.3557 611.23789 116.1157 609.8379 L 104.83567 597.47791 L 113.03569 589.95789 C 113.55569 589.51789 114.07573 589.07789 114.59573 588.67789 C 114.83573 588.47789 115.59566 588.11797 115.83566 588.03797 C 117.27566 587.63797 117.27564 587.63783 117.27564 587.27783 L 117.27564 586.39793 L 108.75566 586.39793 L 108.75566 587.27783 C 108.75566 587.63783 108.95564 587.83798 109.59564 587.95798 C 110.55564 588.15798 110.87564 588.35796 110.87564 588.71796 C 110.87564 588.99796 110.43573 589.67788 110.07573 590.03788 L 101.27571 598.03785 L 101.27571 589.55794 C 101.27571 588.35794 101.43572 588.15783 102.47572 587.87783 L 102.6357 587.83791 C 103.1557 587.67791 103.27562 587.51793 103.27562 587.07793 L 103.27562 586.39793 L 98.420638 586.39793 L 95.235588 586.39793 L 92.220536 586.39793 L 92.220536 587.23791 C 92.220536 587.55791 92.460613 587.79783 92.860612 587.87783 C 93.820611 588.03783 94.140613 588.27795 94.140613 588.79795 C 94.140613 589.23795 93.940598 590.1179 93.620598 591.1579 L 88.540515 606.87794 L 82.980641 590.15794 C 82.740641 589.39794 82.740517 589.39791 82.740517 589.11791 C 82.740517 588.47791 82.9405 588.31798 84.180499 587.95798 C 84.660499 587.79798 84.860646 587.59791 84.860646 587.23791 L 84.860646 586.39793 L 76.82061 586.39793 L 76.82061 587.23791 C 76.82061 587.59791 77.060534 587.79783 77.460534 587.87783 C 78.420533 588.03783 78.660507 588.27796 78.980506 589.39796 L 79.980616 592.55796 L 75.340557 606.47784 L 70.060573 590.43783 L 69.860521 589.79791 C 69.700521 589.35791 69.660621 589.19785 69.660621 588.99785 C 69.660621 588.39785 70.020508 587.9979 70.620507 587.9179 C 71.540506 587.7579 71.740527 587.63791 71.740527 587.23791 L 71.740527 586.39793 L 63.740561 586.39793 z M 54.645468 592.75786 L 59.125395 603.83785 L 50.165542 603.83785 L 54.645468 592.75786 z "
     transform="matrix(3.4045871,0,0,3.4045871,-143.68609,-1908.8192)" />
</svg>
