<?xml version="1.0" encoding="UTF-8" standalone="no"?>
<!-- Created with Inkscape (http://www.inkscape.org/) -->

<svg
   width="800"
   height="800"
   viewBox="0 0 211.66667 211.66667"
   version="1.1"
   id="svg5"
   sodipodi:docname="awk.svg"
   inkscape:version="1.4 (e7c3feb100, 2024-10-09)"
   xmlns:inkscape="http://www.inkscape.org/namespaces/inkscape"
   xmlns:sodipodi="http://sodipodi.sourceforge.net/DTD/sodipodi-0.dtd"
   xmlns="http://www.w3.org/2000/svg"
   xmlns:svg="http://www.w3.org/2000/svg">
  <sodipodi:namedview
     id="namedview7"
     pagecolor="#ffffff"
     bordercolor="#666666"
     borderopacity="1.0"
     inkscape:pageshadow="2"
     inkscape:pageopacity="0.0"
     inkscape:pagecheckerboard="0"
     inkscape:document-units="px"
     showgrid="false"
     inkscape:zoom="0.76531459"
     inkscape:cx="311.63655"
     inkscape:cy="380.88912"
     inkscape:window-width="2560"
     inkscape:window-height="1009"
     inkscape:window-x="1080"
     inkscape:window-y="499"
     inkscape:window-maximized="1"
     inkscape:current-layer="layer1"
     inkscape:showpageshadow="2"
     inkscape:deskcolor="#d1d1d1" />
  <defs
     id="defs2">
    <rect
       x="42.605576"
       y="577.02264"
       width="666.91473"
       height="395.50803"
       id="rect1652" />
    <rect
       x="42.605576"
       y="577.02264"
       width="666.91473"
       height="395.50803"
       id="rect1652-0" />
    <rect
       x="42.605576"
       y="577.02264"
       width="666.91473"
       height="395.50803"
       id="rect1652-1" />
    <rect
       x="42.605576"
       y="577.02264"
       width="666.91473"
       height="395.50803"
       id="rect1652-1-1" />
  </defs>
  <g
     inkscape:label="Katman 1"
     inkscape:groupmode="layer"
     id="layer1">
    <g
       id="g9345"
       transform="matrix(2.3037466,0,0,2.3037466,-160.79541,-9.7933731)"
       style="fill:#000000;fill-opacity:1">
      <g
         aria-label="The"
         transform="matrix(0.56744858,0,0,0.56744858,15.591161,-303.63753)"
         id="text1650"
         style="font-size:40px;line-height:1.25;font-family:'FONTSPRING DEMO - Cheltenham Pro';-inkscape-font-specification:'FONTSPRING DEMO - Cheltenham Pro';letter-spacing:-1.34752px;white-space:pre;shape-inside:url(#rect1652);display:inline;fill:#000000;fill-opacity:1" />
      <g
         aria-label="Programming"
         transform="matrix(0.68021839,0,0,0.68021839,-5.0028072,-328.48256)"
         id="text1650-7"
         style="font-size:40px;line-height:1.25;font-family:'FONTSPRING DEMO - Cheltenham Pro';-inkscape-font-specification:'FONTSPRING DEMO - Cheltenham Pro';letter-spacing:-2.29491px;white-space:pre;shape-inside:url(#rect1652-1);display:inline;fill:#000000;fill-opacity:1" />
      <g
         aria-label="Language"
         transform="matrix(0.68021839,0,0,0.68021839,62.818996,-307.00355)"
         id="text1650-7-1"
         style="font-size:40px;line-height:1.25;font-family:'FONTSPRING DEMO - Cheltenham Pro';-inkscape-font-specification:'FONTSPRING DEMO - Cheltenham Pro';letter-spacing:-2.29491px;white-space:pre;shape-inside:url(#rect1652-1-1);display:inline;fill:#000000;fill-opacity:1" />
      <g
         aria-label="AWK"
         transform="matrix(1.191551,0,0,1.191551,19.149215,-664.16543)"
         id="text1650-9"
         style="font-size:40px;line-height:1.25;font-family:'FONTSPRING DEMO - Cheltenham Pro';-inkscape-font-specification:'FONTSPRING DEMO - Cheltenham Pro';letter-spacing:-5.18486px;white-space:pre;shape-inside:url(#rect1652-0);display:inline;fill:#000000;fill-opacity:1">
        <path
           d="m 53.685469,590.3579 -7.6,18.6 c -0.8,1.72 -1.32,2.32 -2.2,2.52 -0.68,0.2 -0.88,0.4 -0.88,0.84 v 0.76 h 6.76 v -0.76 c 0,-0.4 -0.16,-0.56 -0.64,-0.72 -1,-0.32 -1.32,-0.6 -1.32,-1.28 0,-0.36 0.12,-0.84 0.48,-1.76 l 1.12,-2.92 h 10.52 l 1.36,3.32 c 0.28,0.68 0.44,1.28 0.44,1.64 0,0.48 -0.28,0.72 -1.2,1 -0.6,0.16 -0.8,0.32 -0.8,0.72 v 0.76 h 8.52 v -0.76 c 0,-0.36 -0.12,-0.52 -0.44,-0.64 -1.16,-0.36 -1.28,-0.48 -1.96,-1.88 l -9.96,-23.96 c -0.08,-0.24 -0.12,-0.28 -0.2,-0.28 -0.08,0 -0.08,0 -0.4,0.2 l -2.04,1.24 c -0.36,0.24 -0.56,0.48 -0.56,0.68 0,0.08 0.04,0.2 0.08,0.36 z m 5.44,13.48 h -8.96 l 4.48,-11.08 z"
           id="path9243"
           style="fill:#000000;fill-opacity:1" />
        <path
           d="m 80.980571,595.8779 5.84,17.6 h 1.56 l 7.48,-23.04 c 0.84,-2.2 0.88,-2.28 2.16,-2.72 0.28,-0.04 0.4,-0.2 0.4,-0.48 v -0.84 h -6.2 v 0.84 c 0,0.32 0.24,0.56 0.64,0.64 0.96,0.16 1.28,0.4 1.28,0.92 0,0.44 -0.2,1.32 -0.52,2.36 l -5.08,15.72 -5.56,-16.72 c -0.24,-0.76 -0.24,-0.76 -0.24,-1.04 0,-0.64 0.2,-0.8 1.44,-1.16 0.48,-0.16 0.68,-0.36 0.68,-0.72 v -0.84 h -8.04 v 0.84 c 0,0.36 0.24,0.56 0.64,0.64 0.96,0.16 1.2,0.4 1.52,1.52 l 1,3.16 -4.64,13.92 -5.28,-16.04 -0.2,-0.64 c -0.16,-0.44 -0.2,-0.6 -0.2,-0.8 0,-0.6 0.36,-1 0.96,-1.08 0.92,-0.16 1.12,-0.28 1.12,-0.68 v -0.84 h -8 v 0.84 c 0,0.28 0.12,0.44 0.4,0.56 1.04,0.32 1.28,0.56 1.68,1.88 l 7.8,23.8 h 1.52 z"
           id="path9245"
           style="fill:#000000;fill-opacity:1" />
        <path
           d="m 101.27566,598.0379 v -8.48 c 0,-1.2 0.16,-1.4 1.2,-1.68 l 0.16,-0.04 c 0.52,-0.16 0.64,-0.32 0.64,-0.76 v -0.68 h -8.040004 v 0.68 c 0,0 0.04,0.08 0.32,0.52 0.04,0.08 0.16,0.16 0.4,0.24 l 0.24,0.04 c 1,0.28 1.16,0.52 1.16,1.68 v 20.36 c 0,1.2 -0.16,1.4 -1.24,1.68 l -0.2,0.04 c -0.48,0.12 -0.68,0.36 -0.68,0.76 v 0.68 h 8.040004 v -0.68 c 0,-0.44 -0.12,-0.6 -0.64,-0.76 l -0.16,-0.04 c -1.04,-0.28 -1.2,-0.48 -1.2,-1.68 v -10.72 l 9.76,10.64 c 0.28,0.36 0.44,0.64 0.44,0.88 0,0.48 -0.36,0.72 -1.32,0.92 -0.48,0.08 -0.64,0.28 -0.64,0.76 v 0.68 h 9.6 v -0.68 c 0,-0.56 -0.08,-0.68 -0.72,-0.84 -0.88,-0.24 -1.04,-0.32 -2.28,-1.72 l -11.28,-12.36 8.2,-7.52 c 0.52,-0.44 1.04,-0.88 1.56,-1.28 0.24,-0.2 1,-0.56 1.24,-0.64 1.44,-0.4 1.44,-0.4 1.44,-0.76 v -0.88 h -8.52 v 0.88 c 0,0.36 0.2,0.56 0.84,0.68 0.96,0.2 1.28,0.4 1.28,0.76 0,0.28 -0.44,0.96 -0.8,1.32 z"
           id="path9247"
           style="fill:#000000;fill-opacity:1" />
      </g>
    </g>
  </g>
</svg>
