<?xml version="1.0" encoding="UTF-8" standalone="no"?>
<!-- Generator: Adobe Illustrator 22.0.1, SVG Export Plug-In . SVG Version: 6.00 Build 0)  -->

<svg
   version="1.1"
   id="logo_x5F_firebase_x5F_192px_x5F_clr"
   x="0px"
   y="0px"
   width="1000mm"
   height="1000mm"
   viewBox="0 0 3779.5276 3779.5276"
   enable-background="new 0 0 1080 1080"
   xml:space="preserve"
   sodipodi:docname="dart.svg"
   inkscape:version="1.3 (0e150ed6c4, 2023-07-21)"
   xmlns:inkscape="http://www.inkscape.org/namespaces/inkscape"
   xmlns:sodipodi="http://sodipodi.sourceforge.net/DTD/sodipodi-0.dtd"
   xmlns="http://www.w3.org/2000/svg"
   xmlns:svg="http://www.w3.org/2000/svg"><defs
   id="defs7" /><sodipodi:namedview
   id="namedview7"
   pagecolor="#ffffff"
   bordercolor="#000000"
   borderopacity="0.25"
   inkscape:showpageshadow="2"
   inkscape:pageopacity="0.0"
   inkscape:pagecheckerboard="0"
   inkscape:deskcolor="#d1d1d1"
   inkscape:zoom="0.10925926"
   inkscape:cx="1468.9831"
   inkscape:cy="1240.1695"
   inkscape:window-width="1704"
   inkscape:window-height="940"
   inkscape:window-x="546"
   inkscape:window-y="32"
   inkscape:window-maximized="1"
   inkscape:current-layer="logo_x5F_firebase_x5F_192px_x5F_clr"
   inkscape:document-units="mm" />&#10;<g
   id="g7"
   style="fill:#000000;fill-opacity:1"
   transform="matrix(3.5257204,0,0,3.5257204,-8.7132496,-11.586712)">&#10;	<path
   fill="#01579B"
   d="M 225.6,852.14 44.84,671.38 C 23.43,649.37 10.08,618.3 10.08,587.95 c 0,-14.05 7.94,-36.03 13.9,-48.67 L 190.84,191.66 Z"
   id="path1"
   style="fill:#000000;fill-opacity:1" />&#10;	<path
   fill="#40C4FF"
   d="M 844.37,226.42 663.61,45.66 C 647.82,29.81 614.94,10.9 587.13,10.9 c -23.9,0 -47.36,4.78 -62.57,13.9 L 190.84,191.66 Z"
   id="path2"
   style="fill:#000000;fill-opacity:1" />&#10;	<path
   id="polygon2"
   d="m 441.13,1067.66 h 438 V 879.95 L 552.37,775.66 253.41,879.95 Z" />&#10;	<path
   fill="#29B6F6"
   d="m 190.84,754.8 c 0,55.77 6.99,69.45 34.76,97.33 l 27.81,27.81 H 879.13 L 573.22,532.33 190.84,191.66 Z"
   id="path3"
   style="fill:#000000;fill-opacity:1" />&#10;	<path
   fill="#01579B"
   d="M 747.03,191.66 H 190.84 l 688.29,688.29 h 187.71 V 448.9 L 844.37,226.42 c -31.25,-31.37 -59,-34.76 -97.34,-34.76 z"
   id="path4"
   style="fill:#000000;fill-opacity:1" />&#10;	<path
   opacity="0.2"
   fill="#FFFFFF"
   d="M 232.56,859.09 C 204.75,831.17 197.8,803.66 197.8,754.8 V 198.61 l -6.95,-6.95 V 754.8 c -0.01,48.86 -0.01,62.41 41.71,104.29 l 20.86,20.86 v 0 z"
   id="path5"
   style="fill:#000000;fill-opacity:1" />&#10;	<path
   id="polygon5"
   style="opacity:0.2"
   d="M 1059.89,441.95 V 873 H 872.18 l 6.95,6.95 h 187.72 V 448.9 Z" />&#10;	<path
   opacity="0.2"
   fill="#FFFFFF"
   d="M 844.37,226.42 C 809.91,191.96 781.64,191.66 740.08,191.66 H 190.84 l 6.95,6.95 h 542.29 c 20.78,0 73.12,-3.47 104.29,27.81 z"
   id="path6"
   style="fill:#000000;fill-opacity:1" />&#10;	<radialGradient
   id="SVGID_1_"
   cx="538.46259"
   cy="539.28021"
   r="528.38269"
   gradientUnits="userSpaceOnUse">&#10;		<stop
   offset="0"
   style="stop-color:#FFFFFF;stop-opacity:0.1"
   id="stop6" />&#10;		<stop
   offset="1"
   style="stop-color:#FFFFFF;stop-opacity:0"
   id="stop7" />&#10;	</radialGradient>&#10;	<path
   opacity="0.2"
   fill="url(#SVGID_1_)"
   d="M 1059.89,441.95 844.37,226.42 663.61,45.66 C 647.82,29.81 614.94,10.9 587.13,10.9 c -23.9,0 -47.36,4.78 -62.57,13.9 L 190.84,191.66 23.98,539.28 c -5.96,12.64 -13.9,34.61 -13.9,48.67 0,30.35 13.35,61.41 34.76,83.43 l 166.58,165.38 c 3.99,4.86 8.66,9.84 14.18,15.38 l 6.95,6.95 20.86,20.86 180.76,180.76 6.95,6.95 h 431.05 6.95 V 879.95 h 187.71 v -0.5 -430.55 z"
   id="path7"
   style="fill:#000000;fill-opacity:1" />&#10;</g>&#10;</svg>
