<?xml version="1.0" encoding="UTF-8" standalone="no"?>
<svg
   version="1.0"
   width="1000"
   height="1000"
   viewBox="0 0 10000.008 10000.008"
   preserveAspectRatio="xMidYMid"
   id="svg8"
   sodipodi:docname="fortran.svg"
   inkscape:version="1.3.2 (091e20ef0f, 2023-11-25, custom)"
   xmlns:inkscape="http://www.inkscape.org/namespaces/inkscape"
   xmlns:sodipodi="http://sodipodi.sourceforge.net/DTD/sodipodi-0.dtd"
   xmlns="http://www.w3.org/2000/svg"
   xmlns:svg="http://www.w3.org/2000/svg">
  <defs
     id="defs1" />
  <sodipodi:namedview
     id="namedview1"
     pagecolor="#ffffff"
     bordercolor="#000000"
     borderopacity="0.25"
     inkscape:showpageshadow="2"
     inkscape:pageopacity="0.0"
     inkscape:pagecheckerboard="0"
     inkscape:deskcolor="#d1d1d1"
     inkscape:zoom="0.37005451"
     inkscape:cx="-67.557615"
     inkscape:cy="355.35306"
     inkscape:window-width="2560"
     inkscape:window-height="1009"
     inkscape:window-x="0"
     inkscape:window-y="0"
     inkscape:window-maximized="1"
     inkscape:current-layer="svg8" />
  <g
     id="layer102"
     style="fill:#000000;fill-opacity:1;stroke:none"
     transform="matrix(4.6979596,0,0,4.6979596,-1013.3843,-1013.3843)">
    <path
       d="m 350,2062 98,-6 c 199,-13 197,-12 207,-168 9,-148 -2.337,-1306.766 -9,-1330 -10.975,-38.27 -52.156,-60.281 -175,-60.25 L 350,497 V 280 h 1860 v 831 l -219,-3.25 c -2,-2 -8,-60.75 -12,-114.75 -23,-254 -80,-400.142 -190,-457.142 -58,-30 -148.565,-38.842 -438.652,-38.93 L 1080,497 v 623 h 48 c 81,-1 184,-20 218,-41 44,-27 81,-105 94,-199 9.8,-68.603 17.362,-119.933 17.362,-119.933 L 1670,760 v 990 h -220 v -39 c 0,-64 -30,-213 -51,-258 -33,-69 -89,-93 -248,-108 l -73,-7 4,321 c 3,305 5,322 24,348 24,32 50,38 209,50 l 106.727,5.077 L 1421,2280 H 350 Z"
       id="path5"
       style="fill:#000000;fill-opacity:1" />
  </g>
</svg>
