<?xml version="1.0" encoding="UTF-8" standalone="no"?>
<svg
   viewBox="0 0 1000 1000"
   version="1.1"
   id="svg15"
   sodipodi:docname="verilog.svg"
   inkscape:version="1.3.2 (091e20ef0f, 2023-11-25, custom)"
   width="1000"
   height="1000"
   xmlns:inkscape="http://www.inkscape.org/namespaces/inkscape"
   xmlns:sodipodi="http://sodipodi.sourceforge.net/DTD/sodipodi-0.dtd"
   xmlns="http://www.w3.org/2000/svg"
   xmlns:svg="http://www.w3.org/2000/svg"
   xmlns:rdf="http://www.w3.org/1999/02/22-rdf-syntax-ns#"
   xmlns:cc="http://creativecommons.org/ns#"
   xmlns:dc="http://purl.org/dc/elements/1.1/">
  <defs
     id="defs15" />
  <sodipodi:namedview
     id="namedview15"
     pagecolor="#ffffff"
     bordercolor="#000000"
     borderopacity="0.25"
     inkscape:showpageshadow="2"
     inkscape:pageopacity="0.0"
     inkscape:pagecheckerboard="0"
     inkscape:deskcolor="#d1d1d1"
     inkscape:zoom="0.52135315"
     inkscape:cx="240.71975"
     inkscape:cy="447.873"
     inkscape:window-width="2560"
     inkscape:window-height="1009"
     inkscape:window-x="0"
     inkscape:window-y="0"
     inkscape:window-maximized="1"
     inkscape:current-layer="svg15" />
  <title
     id="title1">file_type_verilog</title>
  <path
     d="m 945.57174,547.96068 h 1.26754 a 49.639292,49.639292 0 0 0 32.13365,-10.82542 50.461475,50.461475 0 0 0 17.7797,-35.31961 v -5.24142 a 48.406018,48.406018 0 0 0 -47.13849,-44.5349 h -0.30831 c -23.53499,0 -47.06997,0 -70.63922,0 h -53.23635 v -90.57715 h 120.34703 1.16475 a 48.337502,48.337502 0 0 0 49.77632,-46.45333 v -3.08319 -1.09624 a 48.37176,48.37176 0 0 0 -22.13042,-37.68339 49.844838,49.844838 0 0 0 -28.6051,-7.70796 h -122.0599 a 101.40256,101.40256 0 0 0 -9.52362,-35.42238 99.655418,99.655418 0 0 0 -58.23797,-50.05038 91.947453,91.947453 0 0 0 -21.54803,-4.45349 v -54.1613 c 0,-23.637755 0,-47.275513 0,-70.673468 A 48.440275,48.440275 0 0 0 687.74888,3.264505 H 683.775 a 47.960669,47.960669 0 0 0 -45.1858,47.549577 q 0,39.533294 0,78.998068 v 44.74045 h -90.64565 v -52.03731 c 0,-23.980342 0,-47.960677 0,-71.495662 A 48.303245,48.303245 0 0 0 501.79852,3.264505 h -5.24142 a 48.23473,48.23473 0 0 0 -44.5349,47.378289 c 0,23.569243 0,47.138486 0,70.707726 v 53.47614 q -45.1858,0 -90.40586,0 v -55.49734 c 0,-22.815572 0,-45.631147 0,-68.138404 A 46.79591,46.79591 0 0 0 347.91329,17.789736 47.960669,47.960669 0 0 0 314.20379,3.264505 h -2.63784 a 48.303245,48.303245 0 0 0 -45.93946,47.309774 c 0,23.397955 0,46.795909 0,70.193861 v 54.81219 a 100.4776,100.4776 0 0 0 -84.4793,65.08948 98.593432,98.593432 0 0 0 -5.51547,24.87103 h -53.95576 c -23.740522,0 -47.481053,0 -71.016038,0 H 50.385861 A 48.406018,48.406018 0 0 0 3.247375,311.58308 v 3.25448 a 48.543048,48.543048 0 0 0 19.698132,37.37506 50.118899,50.118899 0 0 0 30.386509,9.35233 h 0.58238 120.655334 v 90.47438 h -53.20208 c -23.500727,0 -47.104228,0 -70.467925,0 a 48.919882,48.919882 0 0 0 -47.65235,44.98025 v 6.40618 a 47.960669,47.960669 0 0 0 47.481062,44.53492 c 24.357168,0 48.748594,0 73.140013,0 h 50.66702 v 90.78269 h -10.00322 c -20.99992,-0.2398 -41.99985,0 -62.9655,0 H 57.614219 a 55.942694,55.942694 0 0 0 -31.448496,7.22835 49.228201,49.228201 0 0 0 -22.918348,39.01944 v 3.42576 a 48.543048,48.543048 0 0 0 47.104228,45.80244 h 0.171288 q 22.096165,0 44.192331,0 h 81.396098 a 97.017581,97.017581 0 0 0 67.76158,85.64405 92.906667,92.906667 0 0 0 21.61655,4.38496 v 55.49735 c 0,23.22667 0,46.38482 0,69.37168 a 47.986552,47.986552 0 1 0 95.92134,-3.1517 V 825.13907 h 90.61141 v 120.4498 a 48.440275,48.440275 0 0 0 46.14501,51.14662 h 5.24142 a 48.337502,48.337502 0 0 0 44.53491,-47.4468 q 0.20555,-36.51862 0,-73.00299 v -50.83831 h 90.57714 v 123.32743 a 48.748594,48.748594 0 0 0 46.45334,47.96068 h 4.07665 a 48.23473,48.23473 0 0 0 39.73884,-25.3849 56.28527,56.28527 0 0 0 5.72103,-28.5366 V 824.55669 a 91.502104,91.502104 0 0 0 21.23972,-4.38496 100.30631,100.30631 0 0 0 64.60987,-64.6784 97.086096,97.086096 0 0 0 4.21369,-20.99991 h 54.1613 c 23.53499,0 47.10424,0 70.46792,0 h 0.27406 a 48.714336,48.714336 0 0 0 47.24126,-46.7274 v -4.04239 a 48.268987,48.268987 0 0 0 -47.34403,-45.15155 v 0 c -24.59697,0 -49.19393,0 -73.7909,0 h -50.15316 v -90.6114 z"
     style="opacity:1;fill:#000000;fill-opacity:0.999866;stroke-width:34.2576"
     id="path1" />
  <metadata
     id="metadata15">
    <rdf:RDF>
      <cc:Work
         rdf:about="">
        <dc:title>file_type_verilog</dc:title>
      </cc:Work>
    </rdf:RDF>
  </metadata>
</svg>
