<?xml version="1.0" encoding="UTF-8" standalone="no"?>
<svg
   role="img"
   viewBox="0 0 24 24"
   version="1.1"
   id="svg1"
   sodipodi:docname="fortran-copy1.svg"
   inkscape:version="1.4 (e7c3feb100, 2024-10-09)"
   xmlns:inkscape="http://www.inkscape.org/namespaces/inkscape"
   xmlns:sodipodi="http://sodipodi.sourceforge.net/DTD/sodipodi-0.dtd"
   xmlns="http://www.w3.org/2000/svg"
   xmlns:svg="http://www.w3.org/2000/svg">
  <defs
     id="defs1" />
  <sodipodi:namedview
     id="namedview1"
     pagecolor="#ffffff"
     bordercolor="#000000"
     borderopacity="0.25"
     inkscape:showpageshadow="2"
     inkscape:pageopacity="0.0"
     inkscape:pagecheckerboard="0"
     inkscape:deskcolor="#d1d1d1"
     inkscape:zoom="22.185475"
     inkscape:cx="10.8855"
     inkscape:cy="11.201022"
     inkscape:window-width="2560"
     inkscape:window-height="1009"
     inkscape:window-x="1080"
     inkscape:window-y="499"
     inkscape:window-maximized="1"
     inkscape:current-layer="svg1" />
  <title
     id="title1">Fortran</title>
  <path
     d="M 20.729,6.4935001 V 10.3645 l -0.922,-0.005 c -0.507,-0.003 -0.981,-0.021 -1.052,-0.041 -0.128,-0.036 -0.131,-0.05 -0.192,-0.839 -0.079,-1.013 -0.143,-1.4619999 -0.306,-2.1359999 -0.352,-1.457 -1.096,-2.25 -2.309,-2.463 -0.509,-0.089 -2.731,-0.176 -4.558,-0.177 l -1.26,-0.003 V 10.5205 l 0.662,-0.033 c 0.757,-0.038 1.353,-0.129 1.64,-0.252 0.306,-0.131 0.629,-0.462 0.781,-0.799 0.158,-0.352 0.262,-0.815 0.345,-1.5419999 0.033,-0.286 0.07,-0.572 0.083,-0.636 0.024,-0.116 0.028,-0.117 1.036,-0.117 h 1.012 V 16.4415 h -2.062 l -0.035,-0.536 c -0.063,-0.971 -0.252,-1.891 -0.479,-2.331 -0.311,-0.601 -0.922,-0.871 -2.151,-0.95 -0.222528,-0.01316 -0.444623,-0.03284 -0.666,-0.059 l -0.172,-0.027 0.02,2.926 c 0.021,3.086 0.03,3.206 0.265,3.465 0.241,0.266 0.381,0.284 2.827,0.368 0.05,0.002 0.065,0.246 0.065,1.041 v 1.039 H 3.271 v -1.039 c 0,-0.954 0.007,-1.039 0.091,-1.041 0.05,-10e-4 0.543,-0.023 1.097,-0.049 0.891,-0.042 1.033,-0.061 1.244,-0.167 0.149226,-0.06651 0.271038,-0.182322 0.345,-0.328 0.106,-0.206 0.107,-0.254 0.107,-6.78 0,-6.133 -0.006,-6.584 -0.09,-6.737 C 5.944287,5.0248619 5.7459629,4.8684974 5.5119999,4.8005 5.408,4.7685 4.862,4.7305 4.2969999,4.7145 L 3.271,4.6875001 v -2.065 h 17.458 z"
     id="path1-5" />
</svg>
