<?xml version="1.0" encoding="UTF-8" standalone="no"?>
<svg
   width="1024"
   height="1024"
   viewBox="0 0 1024 1024"
   fill="none"
   version="1.1"
   id="svg20"
   sodipodi:docname="lilypond.svg"
   inkscape:version="1.3.2 (091e20ef0f, 2023-11-25, custom)"
   xmlns:inkscape="http://www.inkscape.org/namespaces/inkscape"
   xmlns:sodipodi="http://sodipodi.sourceforge.net/DTD/sodipodi-0.dtd"
   xmlns="http://www.w3.org/2000/svg"
   xmlns:svg="http://www.w3.org/2000/svg">
  <sodipodi:namedview
     id="namedview20"
     pagecolor="#ffffff"
     bordercolor="#000000"
     borderopacity="0.25"
     inkscape:showpageshadow="2"
     inkscape:pageopacity="0.0"
     inkscape:pagecheckerboard="0"
     inkscape:deskcolor="#d1d1d1"
     inkscape:zoom="0.36865234"
     inkscape:cx="-100.36556"
     inkscape:cy="335.00397"
     inkscape:window-width="2560"
     inkscape:window-height="1009"
     inkscape:window-x="0"
     inkscape:window-y="0"
     inkscape:window-maximized="1"
     inkscape:current-layer="svg20" />
  <g
     id="g20"
     transform="matrix(1.1313386,0,0,1.1313386,-74.161601,30.789503)">
    <path
       fill-rule="evenodd"
       clip-rule="evenodd"
       d="M 757.886,794.605 C 731.006,834.43 510.636,690.134 464.676,685.293 410.84,679.624 164.341,756.657 132.366,713.719 93.9859,662.184 299.77,489.16 294.796,441.936 c -5.459,-51.823 -55.225,-266.468 -25.73,-310.172 26.876,-39.8256 318.356,164.889 367.448,160.075 53.876,-5.284 212.941,-72.228 258.355,-43.883 41.383,25.83 -154.666,211.618 -149.695,258.84 5.46,51.824 42.207,244.103 12.712,287.809 z"
       fill="url(#paint1_radial_7_159)"
       id="path4"
       style="fill:#000000;fill-opacity:1" />
    <path
       fill-rule="evenodd"
       clip-rule="evenodd"
       d="m 443.052,777.542 c -34.623,-6.726 -50.309,-153.526 -70.11,-183.143 -19.8,-29.616 -260.696,-252.476 -247.655,-303.686 8.829,-34.673 272.171,-2.443 301.334,-22.55 29.164,-20.108 119.46,-225.5805 154.08,-218.8569 34.625,6.7239 69.572,214.5139 89.372,244.1309 19.8,29.616 247.855,152.967 241.236,188.127 -6.624,35.16 -204.763,127.632 -233.924,147.74 -29.165,20.107 -199.712,154.959 -234.333,148.238 z"
       fill="url(#paint2_radial_7_159)"
       id="path5"
       style="fill:#000000;fill-opacity:1" />
    <path
       fill-rule="evenodd"
       clip-rule="evenodd"
       d="M 619.413,703.93 C 582.433,719.011 489.048,646.302 452.235,630.817 415.422,615.331 149.778,532.261 144.329,476.02 140.477,436.269 320.728,403.433 336.214,366.621 351.7,329.809 328.84,147.625 365.821,132.546 c 36.981,-15.079 159.258,169.979 196.071,185.465 36.808,15.487 238.252,-61.944 253.333,-24.964 15.081,36.981 -150.719,181.726 -166.204,218.539 -15.486,36.813 7.372,177.268 -29.608,192.344 z"
       fill="url(#paint3_radial_7_159)"
       id="path6"
       style="fill:#000000;fill-opacity:1" />
    <path
       fill-rule="evenodd"
       clip-rule="evenodd"
       d="M 719.751,513.434 C 706.662,542.027 574.995,531.372 545.522,542.338 516.054,553.3 471.045,639.93 442.454,626.842 413.862,613.758 362.829,549.381 351.864,519.913 340.899,490.44 229.037,355.708 242.122,327.116 c 13.086,-28.593 175.599,-29.154 205.07,-40.119 29.471,-10.965 175.419,-148.063 204.011,-134.978 28.593,13.086 -29.728,228.874 -18.762,258.345 10.961,29.471 100.394,74.477 87.31,103.07 z"
       fill="url(#paint4_radial_7_159)"
       id="path7"
       style="fill:#000000;fill-opacity:1" />
  </g>
  <defs
     id="defs20">
    <radialGradient
       id="paint0_radial_7_159"
       cx="0"
       cy="0"
       r="1"
       gradientUnits="userSpaceOnUse"
       gradientTransform="translate(514.662 603.862) rotate(90) scale(355.008 504.902)">
      <stop
         offset="0.536458"
         stop-color="#32BE90"
         id="stop8" />
      <stop
         offset="1"
         stop-color="#088D60"
         id="stop9" />
    </radialGradient>
    <radialGradient
       id="paint1_radial_7_159"
       cx="0"
       cy="0"
       r="1"
       gradientUnits="userSpaceOnUse"
       gradientTransform="translate(514.099 464.084) scale(386.509 337.462)">
      <stop
         stop-color="#FFCFDC"
         id="stop10" />
      <stop
         offset="1"
         stop-color="#FD2567"
         id="stop11" />
    </radialGradient>
    <radialGradient
       id="paint2_radial_7_159"
       cx="0"
       cy="0"
       r="1"
       gradientUnits="userSpaceOnUse"
       gradientTransform="translate(575.893 297.903) rotate(36.2261) scale(388.49 347.248)">
      <stop
         stop-color="#F7F7F7"
         id="stop12" />
      <stop
         offset="1"
         stop-color="#FF3E8A"
         id="stop13" />
    </radialGradient>
    <radialGradient
       id="paint3_radial_7_159"
       cx="0"
       cy="0"
       r="1"
       gradientUnits="userSpaceOnUse"
       gradientTransform="translate(480.233 418.825) scale(335.963 287.152)">
      <stop
         stop-color="white"
         id="stop14" />
      <stop
         offset="1"
         stop-color="#FF89B5"
         id="stop15" />
    </radialGradient>
    <radialGradient
       id="paint4_radial_7_159"
       cx="0"
       cy="0"
       r="1"
       gradientUnits="userSpaceOnUse"
       gradientTransform="translate(481.057 389.663) scale(242.906 241.432)">
      <stop
         offset="0.369792"
         stop-color="white"
         id="stop16" />
      <stop
         offset="1"
         stop-color="#FFC3D3"
         id="stop17" />
    </radialGradient>
    <radialGradient
       id="paint5_radial_7_159"
       cx="0"
       cy="0"
       r="1"
       gradientUnits="userSpaceOnUse"
       gradientTransform="translate(499.684 463.031) rotate(-7.64441) scale(150.656 139.693)">
      <stop
         stop-color="#FF8C00"
         id="stop18" />
      <stop
         offset="0.526316"
         stop-color="#FFC500"
         id="stop19" />
      <stop
         offset="1"
         stop-color="#FFFF00"
         id="stop20" />
    </radialGradient>
  </defs>
</svg>
