<?xml version="1.0" encoding="UTF-8" standalone="no"?>
<svg
   id="Layer_1"
   viewBox="0 0 64 64"
   version="1.1"
   sodipodi:docname="VB.NET_Logo.svg"
   inkscape:version="1.4 (e7c3feb100, 2024-10-09)"
   xmlns:inkscape="http://www.inkscape.org/namespaces/inkscape"
   xmlns:sodipodi="http://sodipodi.sourceforge.net/DTD/sodipodi-0.dtd"
   xmlns="http://www.w3.org/2000/svg"
   xmlns:svg="http://www.w3.org/2000/svg">
  <sodipodi:namedview
     id="namedview3"
     pagecolor="#ffffff"
     bordercolor="#000000"
     borderopacity="0.25"
     inkscape:showpageshadow="2"
     inkscape:pageopacity="0.0"
     inkscape:pagecheckerboard="0"
     inkscape:deskcolor="#d1d1d1"
     inkscape:zoom="8.3195532"
     inkscape:cx="31.672374"
     inkscape:cy="40.567082"
     inkscape:window-width="2560"
     inkscape:window-height="1009"
     inkscape:window-x="1080"
     inkscape:window-y="499"
     inkscape:window-maximized="1"
     inkscape:current-layer="Layer_1" />
  <defs
     id="defs1">
    <style
       type="text/css"
       id="style1">.cls-1{fill:#004e8c;}.cls-2,.cls-3{fill:#fff;}.cls-2{opacity:0.1;}</style>
  </defs>
  <title
     id="title1">logo_vb</title>
  <path
     id="circle1"
     style="fill:#000000;fill-opacity:1"
     class="cls-1"
     d="M 32 0 A 32 32 0 0 0 0 32 A 32 32 0 0 0 32 64 A 32 32 0 0 0 64 32 A 32 32 0 0 0 32 0 z M 30.119141 19.349609 L 33.289062 19.400391 L 24 44.599609 L 20.710938 44.599609 L 11.570312 19.400391 L 14.859375 19.400391 L 21.859375 39.400391 A 11.87 11.87 0 0 1 22.369141 41.630859 L 22.439453 41.630859 A 11 11 0 0 1 23 39.349609 L 30.119141 19.349609 z M 36.919922 19.400391 L 44.089844 19.400391 A 7.84 7.84 0 0 1 49.269531 21 A 5.17 5.17 0 0 1 51.189453 25.169922 A 6.13 6.13 0 0 1 50 28.890625 A 6.26 6.26 0 0 1 46.800781 31.140625 L 46.800781 31.210938 A 6.41 6.41 0 0 1 50.880859 33.130859 A 5.92 5.92 0 0 1 52.410156 37.359375 A 6.59 6.59 0 0 1 50.089844 42.599609 A 8.64 8.64 0 0 1 44.240234 44.599609 L 36.919922 44.599609 L 36.919922 19.400391 z M 43.269531 22.029297 L 39.919922 22.060547 L 39.919922 30.199219 L 42.919922 30.199219 A 5.74 5.74 0 0 0 46.710938 29 A 4.07 4.07 0 0 0 48.099609 25.699219 C 48.099609 23.252552 46.489531 22.029297 43.269531 22.029297 z M 39.919922 32.849609 L 39.919922 41.919922 L 43.919922 41.919922 A 6 6 0 0 0 47.919922 40.689453 A 4.21 4.21 0 0 0 49.349609 37.320312 C 49.349609 34.346979 47.322865 32.859375 43.269531 32.859375 L 39.919922 32.849609 z " />
</svg>
